<svg width="134" height="134" viewBox="0 0 134 134" fill="none" xmlns="http://www.w3.org/2000/svg">
<path d="M58.4921 66.5297L65.305 73.3436C66.1924 74.23 67.6308 74.23 68.5172 73.3436L75.331 66.5297C75.7563 66.1034 75.9956 65.5258 75.9956 64.9236V34.0674H57.8266V64.9236C57.8266 65.5258 58.0658 66.1034 58.4921 66.5297Z" fill="#2988B3"/>
<path d="M39.8344 5.41644L48.7144 26.7302C49.4199 28.4232 51.074 29.5263 52.9081 29.5252H82.0529C83.886 29.5252 84.4023 28.4232 85.1077 26.7302L93.9877 5.41644C94.2801 4.71512 94.2024 3.91463 93.7812 3.28282C93.36 2.65102 92.6515 2.27173 91.8919 2.27173H41.9302C41.1716 2.27173 40.4621 2.65102 40.0409 3.28282C39.6197 3.91463 39.542 4.71512 39.8344 5.41644Z" fill="#2988B3"/>
<path d="M10.0649 39.403L5.24869 44.2213C4.3613 45.1087 4.3613 46.5461 5.24869 47.4335L62.8963 105.082C63.9616 106.147 65.4052 106.746 66.9111 106.746C68.417 106.746 69.8615 106.147 70.9258 105.082L128.574 47.4335C129.461 46.5461 129.461 45.1087 128.574 44.2213L123.757 39.403C123.331 38.9778 122.753 38.7385 122.151 38.7385C121.548 38.7385 120.97 38.9778 120.545 39.403L68.5172 91.4319C67.6308 92.3193 66.1924 92.3193 65.305 91.4319L13.2771 39.403C12.8508 38.9778 12.2732 38.7385 11.671 38.7385C11.0689 38.7385 10.4912 38.9778 10.0649 39.403Z" fill="#2988B3"/>
<path d="M130.505 81.7625H106.683C105.953 81.7625 105.268 82.1131 104.842 82.704L76.6764 121.702C76.2491 122.294 75.5641 122.644 74.8352 122.644H58.9879C58.258 122.644 57.573 122.294 57.1467 121.702L28.9813 82.704C28.5539 82.1131 27.869 81.7625 27.14 81.7625H3.31851C2.0641 81.7625 1.04688 82.7797 1.04688 84.0341V131.728C1.04688 132.983 2.0641 134 3.31851 134H130.505C131.759 134 132.775 132.983 132.775 131.728V84.0341C132.775 82.7797 131.759 81.7625 130.505 81.7625Z" fill="#2988B3"/>
<path d="M28.3014 0C27.047 0 26.0298 1.01723 26.0298 2.27164V30.4115L23.4351 26.086C23.02 25.3847 22.2614 24.9584 21.4456 24.9706C20.6308 24.9819 19.8845 25.4297 19.4909 26.1443C19.0963 26.8579 19.1157 27.7279 19.54 28.4241L26.3538 39.7802C26.3794 39.8221 26.4162 39.8528 26.4448 39.8937C26.4919 39.9602 26.542 40.0235 26.5961 40.0839C26.6943 40.1984 26.8037 40.3016 26.9223 40.3936C26.9805 40.4386 27.0357 40.4846 27.0981 40.5235C27.2607 40.6257 27.4345 40.7065 27.6164 40.7637C27.6451 40.7729 27.6675 40.7934 27.6972 40.8015L27.7166 40.8036C27.8976 40.8516 28.0826 40.8762 28.2687 40.8782L28.3014 40.8813H28.3034C28.3229 40.8813 28.3433 40.8741 28.3638 40.8731C28.5396 40.87 28.7154 40.8465 28.8862 40.8036C28.9373 40.7903 28.9843 40.7607 29.0344 40.7433C29.1755 40.6993 29.3115 40.641 29.4403 40.5695L29.4699 40.5572C29.4924 40.5439 29.5026 40.5214 29.5241 40.5081C29.7245 40.3773 29.9034 40.2137 30.0527 40.0266C30.0925 39.9765 30.1334 39.9315 30.1692 39.8784C30.1927 39.8436 30.2265 39.816 30.2479 39.7792L37.0618 28.4231C37.4861 27.7269 37.5055 26.8568 37.1119 26.1432C36.7173 25.4286 35.971 24.9809 35.1562 24.9696C34.3414 24.9573 33.5818 25.3837 33.1677 26.085L30.572 30.4115V2.27164C30.572 1.01723 29.5558 0 28.3014 0Z" fill="#2988B3"/>
<path d="M97.5393 25.307C96.4638 25.9521 96.1152 27.3476 96.7603 28.4231L103.574 39.7792C103.6 39.8211 103.637 39.8518 103.664 39.8927C103.711 39.9591 103.761 40.0225 103.815 40.0828C103.914 40.1973 104.023 40.3006 104.142 40.3926C104.2 40.4376 104.255 40.4836 104.317 40.5224C104.479 40.6247 104.654 40.7054 104.836 40.7627C104.864 40.7719 104.887 40.7923 104.915 40.8005L104.936 40.8026C105.116 40.8506 105.302 40.8752 105.488 40.8782L105.522 40.8813C105.542 40.8813 105.564 40.8741 105.584 40.8731C105.76 40.87 105.936 40.8465 106.107 40.8036C106.158 40.7903 106.205 40.7607 106.256 40.7433C106.396 40.6993 106.532 40.641 106.662 40.5695L106.69 40.5572C106.713 40.5439 106.723 40.5214 106.744 40.5081C106.945 40.3773 107.124 40.2137 107.273 40.0266C107.313 39.9765 107.354 39.9315 107.39 39.8784C107.414 39.8436 107.447 39.816 107.468 39.7792L114.282 28.4231C114.707 27.7269 114.726 26.8568 114.332 26.1433C113.938 25.4286 113.191 24.9809 112.377 24.9696C111.562 24.9573 110.802 25.3837 110.388 26.085L107.792 30.4115V2.27164C107.792 1.01723 106.776 0 105.522 0C104.267 0 103.25 1.01723 103.25 2.27164V30.4115L100.655 26.086C100.346 25.5697 99.8426 25.1976 99.2589 25.0514C98.6741 24.9052 98.0556 24.9972 97.5393 25.307Z" fill="#2988B3"/>
</svg>
