<svg width="134" height="134" viewBox="0 0 134 134" fill="none" xmlns="http://www.w3.org/2000/svg">
<path d="M47.1361 8.375V14.3945H38.949L36.1575 47.8945H40.8849L41.9464 35.1525L52.2155 41.7248L41.033 47.8945H43.472V53.8465L52.2042 58.3531L43.472 61.846V64.6445H49.1597L59.1607 60.6442L59.4939 64.6445H64.2213L60.0338 14.3945H51.847V8.375H47.1361ZM43.4995 19.1055H55.699L55.9589 22.2199L43.4995 19.1055ZM97.3861 22.7695V39.5195H101.694L122.511 32.5803V96.3125H127.222V22.7695H97.3861ZM42.8918 23.8093L52.6479 26.2486L42.2409 31.6198L42.8918 23.8093ZM85.347 27.4805V39.5195H93.1986V27.4805H85.347ZM107.521 27.4805H122.511V27.615L112.652 30.9011L107.521 27.4805ZM102.097 29.5261L106.99 32.7879L102.097 34.4192V29.5261ZM56.5676 29.5266L57.3941 39.4457L48.4452 33.7188L56.5676 29.5266ZM57.7765 44.0373L58.8121 56.4622L46.6417 50.1809L57.7765 44.0373ZM81.1595 44.2305V56.2695H109.949V44.2305H81.1595ZM18.347 52.6055V64.6445H38.7611V52.6055H18.347ZM22.2728 56.2695H30.6478V60.9805H22.2728V56.2695ZM89.5345 60.9805V64.6445H101.574V60.9805H89.5345ZM9.972 69.3555V81.3945H114.136V69.3555H9.972ZM10.6263 86.1055L22.0111 101.285V93.4336L16.515 86.1055H10.6263ZM26.722 86.1055V119.233C25.9107 119.138 25.1198 119.082 24.3665 119.082C20.9176 119.082 16.7068 120.203 13.1524 121.277C9.598 122.35 6.77798 123.424 6.77798 123.424L8.45482 127.826C8.45482 127.826 11.1322 126.807 14.5141 125.786C17.8961 124.765 22.06 123.793 24.3665 123.793C26.6728 123.793 30.8367 124.765 34.2187 125.786C37.6006 126.807 40.278 127.826 40.278 127.826L41.1165 128.145L41.9548 127.826C41.9548 127.826 44.6322 126.807 48.0141 125.786C51.3961 124.765 55.56 123.793 57.8665 123.793C60.1728 123.793 64.3367 124.765 67.7187 125.786C71.1006 126.807 73.778 127.826 73.778 127.826L74.6165 128.145L75.4548 127.826C75.4548 127.826 78.1322 126.807 81.5141 125.786C84.8961 124.765 89.06 123.793 91.3665 123.793C93.6728 123.793 97.8367 124.765 101.219 125.786C104.601 126.807 107.278 127.826 107.278 127.826L107.97 128.09L125.438 123.722L124.295 119.153L108.242 123.166C107.429 122.864 105.452 122.143 102.58 121.276C99.6345 120.387 96.2389 119.466 93.1986 119.177V86.1055H85.347V119.881C83.5686 120.281 81.7908 120.782 80.1524 121.277C77.4015 122.107 75.5205 122.787 74.6165 123.12C73.7123 122.787 71.8316 122.107 69.0804 121.277C65.5263 120.203 61.3152 119.082 57.8665 119.082C56.0073 119.082 53.9266 119.413 51.847 119.881V86.1055H47.1361V121.133C46.9756 121.181 46.8102 121.229 46.6524 121.277C43.9015 122.107 42.0205 122.787 41.1165 123.12C40.2123 122.787 38.3316 122.107 35.5804 121.277C35.2517 121.177 34.9122 121.078 34.5736 120.979V86.1055H26.722ZM69.2513 86.1055L80.6361 101.285V93.4336L75.14 86.1055H69.2513ZM103.406 86.1055L97.9095 93.4336V101.285L109.294 86.1055H103.406Z" fill="#2988B3"/>
</svg>
