<svg width="135" height="134" viewBox="0 0 135 134" fill="none" xmlns="http://www.w3.org/2000/svg">
<g clip-path="url(#clip0_208_177)">
<path d="M107.18 134C113.684 134 118.957 128.727 118.957 122.223C118.957 115.718 113.684 110.445 107.18 110.445C100.675 110.445 95.4022 115.718 95.4022 122.223C95.4022 128.727 100.675 134 107.18 134Z" fill="#2988B3"/>
<path d="M8.77332 66.7383V86.8906H63.996V62.8125H12.6991C10.531 62.8125 8.77332 64.5702 8.77332 66.7383Z" fill="#2988B3"/>
<path d="M4.58582 94.7422C2.38712 94.7422 0.660034 96.4693 0.660034 98.668V122.223C0.660034 124.421 2.38712 126.148 4.58582 126.148H9.43232C9.17348 124.879 9.03503 123.567 9.03503 122.223C9.03503 111.4 17.8411 102.594 28.6639 102.594C33.0995 102.594 37.1504 104.129 40.4413 106.62C43.7321 104.129 47.783 102.594 52.2186 102.594C63.0415 102.594 71.8475 111.4 71.8475 122.223C71.8475 123.567 71.7091 124.879 71.4502 126.148H87.5507V94.7422H4.58582Z" fill="#2988B3"/>
<path d="M28.6639 134C35.1684 134 40.4413 128.727 40.4413 122.223C40.4413 115.718 35.1684 110.445 28.6639 110.445C22.1595 110.445 16.8866 115.718 16.8866 122.223C16.8866 128.727 22.1595 134 28.6639 134Z" fill="#2988B3"/>
<path d="M52.2186 134C58.7231 134 63.996 128.727 63.996 122.223C63.996 115.718 58.7231 110.445 52.2186 110.445C45.7142 110.445 40.4413 115.718 40.4413 122.223C40.4413 128.727 45.7142 134 52.2186 134Z" fill="#2988B3"/>
<path d="M122.883 86.3672H95.4022V106.598C98.6996 104.164 102.783 102.594 107.18 102.594C118.015 102.594 126.808 111.387 126.808 122.223C126.808 123.557 126.651 124.892 126.416 126.148H130.734C132.933 126.148 134.66 124.421 134.66 122.223V98.1445C134.66 91.6275 129.4 86.3672 122.883 86.3672Z" fill="#2988B3"/>
<path d="M126.808 78.9129V74.5898C126.808 68.0956 121.525 62.8125 115.031 62.8125H99.328C97.1581 62.8125 95.4022 64.5684 95.4022 66.7383V78.5156H122.883C124.227 78.5156 125.539 78.6541 126.808 78.9129Z" fill="#2988B3"/>
<path d="M63.996 51.0352C63.996 44.5409 58.7129 39.2578 52.2186 39.2578H36.5155C34.3456 39.2578 32.5897 41.0137 32.5897 43.1836V54.9609H63.996V51.0352Z" fill="#2988B3"/>
<path d="M128.537 22.0519C132.314 19.9817 134.66 16.0444 134.66 11.7773C134.66 5.28305 129.377 0 122.883 0C120.874 0 118.949 0.51768 117.209 1.5143L60.1966 33.1386C67.0463 36.2062 71.8475 43.058 71.8475 51.0352V53.6052L118.957 27.3842V33.5495C118.957 37.9047 121.161 41.7653 124.704 43.6285C126.003 44.3108 126.808 45.6448 126.808 47.1094C126.808 49.2754 125.049 51.0352 122.883 51.0352C120.717 51.0352 118.957 49.2754 118.957 47.1094C118.957 44.9395 117.201 43.1836 115.031 43.1836C112.861 43.1836 111.105 44.9395 111.105 47.1094C111.105 53.6037 116.388 58.8867 122.883 58.8867C129.377 58.8867 134.66 53.6037 134.66 47.1094C134.66 42.7198 132.245 38.725 128.361 36.6815C127.433 36.1907 126.808 34.9332 126.808 33.5492V23.0142L128.537 22.0519Z" fill="#2988B3"/>
</g>
<defs>
<clipPath id="clip0_208_177">
<rect width="134" height="134" fill="white" transform="translate(0.660034)"/>
</clipPath>
</defs>
</svg>
