<svg width="135" height="134" viewBox="0 0 135 134" fill="none" xmlns="http://www.w3.org/2000/svg">
<g clip-path="url(#clip0_208_273)">
<path d="M35.9238 23.5547H39.8495V45.9371L65.3101 30.6606C66.5532 29.9145 68.1068 29.9145 69.35 30.6606L94.8105 45.9371V23.5547H98.7363C100.904 23.5547 102.662 21.797 102.662 19.6289C102.662 17.4608 100.904 15.7031 98.7363 15.7031H79.1074V3.92578C79.1074 1.7577 77.3497 0 75.1816 0C73.0135 0 71.2558 1.7577 71.2558 3.92578V15.7031H63.4042V3.92578C63.4042 1.7577 61.6465 0 59.4785 0C57.3104 0 55.5527 1.7577 55.5527 3.92578V15.7031H35.9238C33.7557 15.7031 31.998 17.4608 31.998 19.6289C31.998 21.797 33.7557 23.5547 35.9238 23.5547Z" fill="#2988B3"/>
<path d="M130.404 126.149H126.478V98.1446C126.478 95.9766 124.721 94.2189 122.553 94.2189H106.85C104.681 94.2189 102.924 95.9766 102.924 98.1446V102.07H93.3108L110.099 68.494C111.017 66.6594 110.367 64.4274 108.608 63.3722L71.2558 40.9609V74.59C71.2558 76.758 69.4981 78.5157 67.33 78.5157C65.1619 78.5157 63.4042 76.758 63.4042 74.59V40.9609L26.0523 63.3722C24.2932 64.4277 23.6434 66.6594 24.561 68.494L41.3492 102.07H31.7363V98.1446C31.7363 95.9766 29.9786 94.2189 27.8105 94.2189H12.1074C9.93928 94.2189 8.18158 95.9766 8.18158 98.1446V126.149H4.2558C2.08772 126.149 0.330017 127.906 0.330017 130.074C0.330017 132.242 2.08772 134 4.2558 134H130.404C132.572 134 134.33 132.242 134.33 130.074C134.33 127.906 132.572 126.149 130.404 126.149ZM83.0331 70.6642C85.2012 70.6642 86.9589 72.4214 86.9589 74.59C86.9589 76.758 85.2012 78.5157 83.0331 78.5157C80.8651 78.5157 79.1074 76.758 79.1074 74.59C79.1074 72.4214 80.8651 70.6642 83.0331 70.6642ZM102.924 126.149H31.7363V109.922H46.2886L64.8288 125.249C65.5545 125.848 66.4425 126.149 67.3303 126.149C68.218 126.149 69.1058 125.849 69.8318 125.249L88.3714 109.922H102.924V126.149Z" fill="#2988B3"/>
</g>
<defs>
<clipPath id="clip0_208_273">
<rect width="134" height="134" fill="white" transform="translate(0.330017)"/>
</clipPath>
</defs>
</svg>
