<svg width="135" height="133" viewBox="0 0 135 133" fill="none" xmlns="http://www.w3.org/2000/svg">
<path d="M132.111 54.6052C130.959 50.8573 123.192 51.4645 116.554 52.6998C115.968 52.2183 115.319 51.7995 114.628 51.4226C111.718 49.8733 108.368 49.5592 105.206 50.5223C102.045 51.4855 99.4694 53.642 97.92 56.5524C97.5431 57.2433 97.25 57.9552 97.0197 58.688C90.8431 61.368 84.0802 65.2205 85.2318 68.9683C85.8809 71.083 88.6865 71.8158 92.1831 71.8158C94.6328 71.8158 97.4384 71.439 100.056 70.9783C100.935 71.8787 101.898 72.6743 103.029 73.2815C104.85 74.2446 106.818 74.7262 108.828 74.7262C110.043 74.7262 111.257 74.5377 112.451 74.1818C115.612 73.1977 118.209 71.0621 119.758 68.1518C120.365 67.0002 120.784 65.7858 121.014 64.5505C126.877 61.9333 133.2 58.1855 132.111 54.6052ZM88.2468 68.1308C88.3096 67.419 90.4662 65.2205 96.4544 62.3939C96.4753 63.5874 96.6428 64.8018 97.0197 65.9743C97.25 66.728 97.5431 67.4608 97.92 68.1518C91.555 69.094 88.6237 68.5077 88.2468 68.1308ZM116.994 66.6652C115.822 68.8427 113.895 70.4549 111.55 71.1668C109.184 71.8996 106.693 71.6483 104.515 70.4968C104.327 70.3921 104.18 70.2665 103.992 70.1618C106.148 69.6802 108.347 69.1149 110.692 68.403C112.995 67.6911 115.173 66.9374 117.203 66.1418C117.12 66.2883 117.078 66.4768 116.994 66.6652ZM109.771 65.3671C106.756 66.3093 103.908 67.0002 101.249 67.5236C100.726 66.749 100.286 65.9324 100.014 65.0321C99.3019 62.6661 99.5322 60.1746 100.684 57.997C101.835 55.8195 103.783 54.2283 106.128 53.5164C107.028 53.2233 107.949 53.0976 108.849 53.0976C110.336 53.0976 111.802 53.4536 113.163 54.1864C115.34 55.338 116.931 57.2642 117.664 59.6302C117.936 60.5305 118.02 61.4727 118.02 62.3939C115.528 63.4618 112.786 64.4668 109.771 65.3671ZM121.14 61.0121C121.056 60.2374 120.889 59.4627 120.658 58.7089C120.302 57.5155 119.716 56.4477 119.046 55.4427C125.641 54.3958 128.677 55.003 129.096 55.4217C129.033 56.0917 126.939 58.2692 121.14 61.0121Z" fill="#2988B3"/>
<path d="M120.261 11.6622V11.6204C115.906 4.45971 108.033 0 99.679 0C94.6749 0 89.8593 1.54938 85.7764 4.43877C82.6148 6.67909 80.1023 9.65223 78.3645 13.0022C76.6267 16.3523 75.6845 20.121 75.6845 23.9735C75.6845 25.3973 75.8101 26.8001 76.0614 28.1611C78.0714 39.6349 88.0167 47.968 99.679 47.968C104.83 47.968 109.729 46.3558 113.833 43.3199H113.854C113.854 43.2989 113.854 43.2989 113.854 43.2989C116.911 41.0586 119.381 38.1273 121.056 34.8192C122.731 31.5111 123.653 27.7842 123.653 23.9735C123.653 19.6395 122.48 15.3682 120.261 11.6622ZM99.679 44.8483C89.7127 44.8483 81.1911 37.8552 79.2439 28.1192C79.7045 27.2817 80.4583 26.5907 81.3586 26.2348C82.6567 25.6904 84.248 25.8789 85.4205 26.7164C86.0695 27.177 86.6349 27.8679 87.2211 28.6007C87.5561 29.0195 87.8911 29.4173 88.268 29.8151C89.9221 31.6158 91.8064 32.4323 93.628 32.1601C95.1983 31.9089 96.308 30.9458 97.2712 30.0873C97.9412 29.5011 98.5484 28.9567 99.1555 28.7682C100.181 28.4751 101.48 29.0614 103.134 30.527C106.505 33.6048 109.206 37.3736 110.985 41.4983C107.635 43.6758 103.741 44.8483 99.679 44.8483ZM113.1 12.8557C112.137 12.7091 111.153 12.4369 110.148 12.1438C108.536 11.6832 106.882 11.2016 105.081 11.2016C102.652 11.2435 100.496 12.1229 98.4227 13.0022L97.2921 13.4419C94.5702 14.4888 92.623 14.6563 91.1364 13.9863C89.6917 13.3372 88.5821 11.8088 88.2052 9.92442C88.0167 8.91941 88.0377 7.80972 88.1842 6.61628C91.5971 4.35502 95.5543 3.14064 99.679 3.14064C106.526 3.14064 112.974 6.61628 116.848 12.2276C115.906 12.8557 114.482 13.1069 113.1 12.8557Z" fill="#2988B3"/>
<path d="M54.7678 121.585C54.7678 124.453 52.4228 126.777 49.5753 126.777C46.7069 126.777 44.3828 124.453 44.3828 121.585C44.3828 118.716 46.7069 116.392 49.5753 116.392C52.4228 116.392 54.7678 118.716 54.7678 121.585Z" fill="#2988B3"/>
<path d="M132.383 111.493C132.3 111.053 132.048 110.676 131.671 110.446L126.981 107.515C127.128 106.991 127.254 106.426 127.254 105.84C127.254 103.369 125.788 101.254 123.673 100.27L121.684 93.8004C122.899 92.3138 123.652 90.4295 123.652 88.3776C123.652 83.6247 119.8 79.7513 115.026 79.7513C110.462 79.7513 106.735 83.3316 106.463 87.8541L86.886 96.8154V96.271L91.2829 87.3516C94.256 87.2679 96.6429 84.8391 96.6429 81.845C96.6429 78.83 94.1723 76.3594 91.1573 76.3594H69.9894V57.5156C69.9894 55.3171 68.4609 53.4956 66.409 52.9931V41.4774C67.6234 39.8233 68.3981 37.5202 68.3981 34.903C68.3981 29.7733 65.5087 25.7533 61.8028 25.7533C58.1178 25.7533 55.2284 29.7733 55.2284 34.903C55.2284 37.6458 56.0659 40.0327 57.4059 41.7077V52.9931C55.354 53.4956 53.8255 55.3171 53.8255 57.5156V76.3594H32.6158V67.3144C33.6208 67.0631 34.6048 66.77 35.6099 66.4559C36.2589 66.2465 36.6986 65.6394 36.6986 64.9484V56.1128C36.6986 55.4218 36.238 54.8146 35.5889 54.6262C34.6048 54.3121 33.6208 54.0399 32.6158 53.8096V20.9586C35.7774 19.7232 39.0227 19.0323 42.3517 18.9067C42.6239 19.1579 42.9799 19.3254 43.3986 19.3254H46.309C48.4027 19.3254 49.9102 16.9804 49.9102 13.756V8.396C49.9102 5.15067 48.4027 2.80566 46.309 2.80566H11.3432C10.4638 2.80566 9.77287 3.51754 9.77287 4.37598V19.9954C9.77287 20.8748 10.4638 21.5657 11.3432 21.5657H15.9285V53.8306C14.9445 54.0609 13.9604 54.3331 12.9763 54.6471C12.3063 54.8356 11.8666 55.4428 11.8666 56.1337V64.9694C11.8666 65.6394 12.2854 66.2256 12.8926 66.4559C13.8976 66.8119 14.9235 67.1259 15.9285 67.3772V76.3803H7.99317C4.95722 76.3803 2.48659 78.851 2.48659 81.866C2.48659 84.8601 4.89441 87.2679 7.84661 87.3516L12.2644 96.292V110.676C6.92536 111.472 2.80065 116.036 2.80065 121.606C2.80065 124.725 4.09878 127.552 6.1716 129.562H1.90034C1.0419 129.562 0.330017 130.274 0.330017 131.132C0.330017 131.991 1.0419 132.702 1.90034 132.702H99.8045C100.663 132.702 101.375 131.991 101.375 131.132C101.375 130.274 100.663 129.562 99.8045 129.562H92.9579C95.0307 127.552 96.3498 124.725 96.3498 121.606C96.3498 116.057 92.2251 111.472 86.886 110.676V108.352L109.624 95.0357C110.608 95.8314 111.739 96.4176 112.974 96.7317L115.215 104.039C115.047 104.604 114.921 105.211 114.921 105.84C114.921 107.347 115.487 108.687 116.387 109.755L113.665 114.738C113.435 115.115 113.414 115.575 113.54 115.994L116.827 125.73C116.994 126.191 117.35 126.547 117.811 126.714L123.987 128.871C124.155 128.934 124.322 128.955 124.49 128.955C125.139 128.955 125.746 128.557 125.976 127.908C126.27 127.091 125.83 126.191 125.013 125.898L119.57 123.992L116.743 115.638L118.962 111.597C119.632 111.849 120.323 111.995 121.077 111.995C122.752 111.995 124.281 111.325 125.39 110.236L129.431 112.749L131.106 121.543L128.531 125.5C128.049 126.233 128.259 127.196 128.991 127.677C129.243 127.845 129.536 127.929 129.85 127.929C130.352 127.929 130.855 127.677 131.148 127.217L134.079 122.736C134.289 122.38 134.372 121.982 134.31 121.585L132.383 111.493ZM44.9689 5.92536H46.1415C46.3508 6.15568 46.7696 6.99318 46.7696 8.37506V13.756C46.7696 15.1379 46.3508 15.9545 46.1415 16.1848H44.9689V5.92536ZM60.5465 43.8643C60.9443 43.969 61.384 44.0527 61.8028 44.0527C62.3053 44.0527 62.8078 43.948 63.2684 43.8224V52.8465H60.5465V43.8643ZM32.3855 6.4488C34.9189 6.4488 36.9708 8.52163 36.9708 11.0551C36.9708 13.5885 34.9189 15.6613 32.3855 15.6613C29.852 15.6613 27.7792 13.5885 27.7792 11.0551C27.7792 8.52163 29.852 6.4488 32.3855 6.4488ZM13.7301 12.1648C13.7301 9.63132 15.8029 7.57943 18.3363 7.57943C20.8698 7.57943 22.9426 9.63132 22.9426 12.1648C22.9426 14.6982 20.8698 16.771 18.3363 16.771C15.8029 16.771 13.7301 14.7191 13.7301 12.1648ZM15.0073 63.8597V57.3062C21.1629 55.5893 27.4023 55.5893 33.558 57.3062V63.8178C27.0254 65.765 20.9326 65.765 15.0073 63.8597ZM13.8766 129.562C9.50068 129.562 5.94129 126.002 5.94129 121.606C5.94129 117.23 9.50068 113.649 13.8766 113.649C18.2735 113.649 21.8329 117.23 21.8329 121.606C21.8329 126.002 18.2735 129.562 13.8766 129.562ZM18.5457 104.5V102.175C18.5457 101.296 19.2367 100.605 20.116 100.605H20.472C21.3514 100.605 22.0423 101.296 22.0423 102.175C22.0423 102.552 21.9167 102.908 21.6864 103.18V104.5C21.6864 105.358 20.9745 106.07 20.116 106.07C19.2367 106.07 18.5457 105.358 18.5457 104.5ZM21.5817 129.562C23.2567 127.95 24.3873 125.835 24.7851 123.469H38.6667C39.0645 125.835 40.2161 127.95 41.8702 129.562H21.5817ZM25.0364 102.196C25.0364 101.317 25.7482 100.626 26.6067 100.626H40.9908C41.8493 100.626 42.5611 101.317 42.5611 102.196C42.5611 103.055 41.8493 103.767 40.9908 103.767H26.6067C25.7482 103.767 25.0364 103.055 25.0364 102.196ZM49.5752 129.562C45.1783 129.562 41.6189 126.002 41.6189 121.606C41.6189 119.407 42.4983 117.418 43.943 115.973C45.3877 114.529 47.3768 113.649 49.5752 113.649C53.9512 113.649 57.5315 117.23 57.5315 121.606C57.5315 126.002 53.9512 129.562 49.5752 129.562ZM57.2803 129.562C58.9343 127.95 60.0649 125.835 60.4837 123.469H74.3444C74.7422 125.835 75.8938 127.95 77.5478 129.562H57.2803ZM93.2092 121.585C93.2092 125.981 89.6288 129.541 85.2529 129.541C80.8769 129.541 77.2966 125.981 77.2966 121.585C77.2966 117.209 80.8769 113.628 85.2529 113.628C89.6288 113.628 93.2092 117.209 93.2092 121.585ZM84.3316 94.3448H14.7979L11.3641 87.3726H87.7863L84.3316 94.3448ZM86.886 104.688V100.249L106.902 91.0785C107.07 91.602 107.3 92.1045 107.572 92.586L86.886 104.688ZM117.518 100.835L116.303 96.8782C117.287 96.7107 118.209 96.3967 119.067 95.957L120.24 99.7676C119.235 99.8723 118.313 100.249 117.518 100.835Z" fill="#2988B3"/>
<path d="M85.2528 126.777C88.1205 126.777 90.4453 124.452 90.4453 121.585C90.4453 118.717 88.1205 116.392 85.2528 116.392C82.385 116.392 80.0603 118.717 80.0603 121.585C80.0603 124.452 82.385 126.777 85.2528 126.777Z" fill="#2988B3"/>
<path d="M19.0692 121.585C19.0692 124.453 16.7451 126.777 13.8766 126.777C11.0291 126.798 8.70505 124.474 8.70505 121.585C8.70505 118.716 11.0291 116.392 13.8766 116.392C16.7451 116.392 19.0692 118.716 19.0692 121.585Z" fill="#2988B3"/>
<path d="M19.8021 12.1649C19.8021 12.9815 19.1321 13.6305 18.3365 13.6305C17.5199 13.6305 16.8708 12.9815 16.8708 12.1649C16.8708 11.3693 17.5199 10.7202 18.3365 10.7202C19.1321 10.7202 19.8021 11.3693 19.8021 12.1649Z" fill="#2988B3"/>
<path d="M33.83 11.0552C33.83 11.8718 33.181 12.5209 32.3853 12.5209C31.5688 12.5209 30.9197 11.8718 30.9197 11.0552C30.9197 10.2596 31.5688 9.5896 32.3853 9.5896C33.181 9.5896 33.83 10.2805 33.83 11.0552Z" fill="#2988B3"/>
</svg>
