<svg width="135" height="134" viewBox="0 0 135 134" fill="none" xmlns="http://www.w3.org/2000/svg">
<path d="M111.013 27.5336V19.6512H103.131V27.5336H95.2483V35.4159H82.7469C79.0203 24.9687 64.1779 24.9752 60.4556 35.4159H47.9541V27.5336H40.0718V7.82769H23.6292C19.0614 -4.51528 0.911744 -1.5573 0.660034 11.7691C0.912795 25.0971 19.0638 28.0514 23.6292 15.71H32.1894V27.5336H24.3071V43.2983H60.4556C64.1821 53.7455 79.0245 53.739 82.7469 43.2983H118.895V27.5336H111.013Z" fill="#2988B3"/>
<path d="M8.54218 118.181H63.7186V133.945H8.54218V118.181Z" fill="#2988B3"/>
<path d="M40.0719 51.1804H32.1896C21.9134 51.1804 13.1487 57.7701 9.89514 66.9451H62.3666C59.1128 57.7701 50.3482 51.1804 40.0719 51.1804Z" fill="#2988B3"/>
<path d="M8.54218 110.298H63.7186V74.8279H8.54218V110.298ZM40.0716 94.5338H47.9539V102.416H40.0716V94.5338ZM24.3069 82.7102H32.1892V90.5926H24.3069V82.7102Z" fill="#2988B3"/>
<path d="M79.4838 118.181H134.66V133.945H79.4838V118.181Z" fill="#2988B3"/>
<path d="M103.131 51.1804C92.8544 51.1804 84.0898 57.7701 80.8362 66.9451H133.308C130.054 57.7701 121.289 51.1804 111.013 51.1804H103.131Z" fill="#2988B3"/>
<path d="M79.4838 74.8279V110.298H134.66V74.8279H79.4838ZM103.131 90.5926H95.2485V82.7102H103.131V90.5926ZM118.896 102.416H111.013V94.5338H118.896V102.416Z" fill="#2988B3"/>
</svg>
